<?xml version="1.0" standalone="no"?>
<svg xmlns:xlink="http://www.w3.org/1999/xlink" id="wave" style="transform:rotate(0deg); transition: 0.3s" viewBox="0 0 1440 490" version="1.1" xmlns="http://www.w3.org/2000/svg"><defs><linearGradient id="sw-gradient-0" x1="0" x2="0" y1="1" y2="0"><stop stop-color="rgba(75, 85, 99, 1)" offset="0%"/><stop stop-color="rgba(55, 65, 81, 1)" offset="100%"/></linearGradient></defs><path style="transform:translate(0, 0px); opacity:1" fill="url(#sw-gradient-0)" d="M0,98L240,155.2C480,212,960,327,1440,359.3C1920,392,2400,343,2880,334.8C3360,327,3840,359,4320,383.8C4800,408,5280,425,5760,375.7C6240,327,6720,212,7200,171.5C7680,131,8160,163,8640,171.5C9120,180,9600,163,10080,138.8C10560,114,11040,82,11520,81.7C12000,82,12480,114,12960,179.7C13440,245,13920,343,14400,359.3C14880,376,15360,310,15840,277.7C16320,245,16800,245,17280,204.2C17760,163,18240,82,18720,49C19200,16,19680,33,20160,89.8C20640,147,21120,245,21600,277.7C22080,310,22560,278,23040,261.3C23520,245,24000,245,24480,253.2C24960,261,25440,278,25920,277.7C26400,278,26880,261,27360,228.7C27840,196,28320,147,28800,114.3C29280,82,29760,65,30240,89.8C30720,114,31200,180,31680,196C32160,212,32640,180,33120,196C33600,212,34080,278,34320,310.3L34560,343L34560,490L34320,490C34080,490,33600,490,33120,490C32640,490,32160,490,31680,490C31200,490,30720,490,30240,490C29760,490,29280,490,28800,490C28320,490,27840,490,27360,490C26880,490,26400,490,25920,490C25440,490,24960,490,24480,490C24000,490,23520,490,23040,490C22560,490,22080,490,21600,490C21120,490,20640,490,20160,490C19680,490,19200,490,18720,490C18240,490,17760,490,17280,490C16800,490,16320,490,15840,490C15360,490,14880,490,14400,490C13920,490,13440,490,12960,490C12480,490,12000,490,11520,490C11040,490,10560,490,10080,490C9600,490,9120,490,8640,490C8160,490,7680,490,7200,490C6720,490,6240,490,5760,490C5280,490,4800,490,4320,490C3840,490,3360,490,2880,490C2400,490,1920,490,1440,490C960,490,480,490,240,490L0,490Z"/><defs><linearGradient id="sw-gradient-1" x1="0" x2="0" y1="1" y2="0"><stop stop-color="rgba(31, 41, 55, 1)" offset="0%"/><stop stop-color="rgba(17, 24, 39, 1)" offset="100%"/></linearGradient></defs><path style="transform:translate(0, 50px); opacity:0.9" fill="url(#sw-gradient-1)" d="M0,49L240,106.2C480,163,960,278,1440,269.5C1920,261,2400,131,2880,73.5C3360,16,3840,33,4320,32.7C4800,33,5280,16,5760,16.3C6240,16,6720,33,7200,98C7680,163,8160,278,8640,302.2C9120,327,9600,261,10080,236.8C10560,212,11040,229,11520,253.2C12000,278,12480,310,12960,294C13440,278,13920,212,14400,212.3C14880,212,15360,278,15840,285.8C16320,294,16800,245,17280,253.2C17760,261,18240,327,18720,294C19200,261,19680,131,20160,98C20640,65,21120,131,21600,171.5C22080,212,22560,229,23040,253.2C23520,278,24000,310,24480,334.8C24960,359,25440,376,25920,334.8C26400,294,26880,196,27360,130.7C27840,65,28320,33,28800,49C29280,65,29760,131,30240,155.2C30720,180,31200,163,31680,187.8C32160,212,32640,278,33120,294C33600,310,34080,278,34320,261.3L34560,245L34560,490L34320,490C34080,490,33600,490,33120,490C32640,490,32160,490,31680,490C31200,490,30720,490,30240,490C29760,490,29280,490,28800,490C28320,490,27840,490,27360,490C26880,490,26400,490,25920,490C25440,490,24960,490,24480,490C24000,490,23520,490,23040,490C22560,490,22080,490,21600,490C21120,490,20640,490,20160,490C19680,490,19200,490,18720,490C18240,490,17760,490,17280,490C16800,490,16320,490,15840,490C15360,490,14880,490,14400,490C13920,490,13440,490,12960,490C12480,490,12000,490,11520,490C11040,490,10560,490,10080,490C9600,490,9120,490,8640,490C8160,490,7680,490,7200,490C6720,490,6240,490,5760,490C5280,490,4800,490,4320,490C3840,490,3360,490,2880,490C2400,490,1920,490,1440,490C960,490,480,490,240,490L0,490Z"/></svg>