<?xml version="1.0" standalone="no"?>
<svg xmlns:xlink="http://www.w3.org/1999/xlink" id="wave" style="transform:rotate(0deg); transition: 0.3s" viewBox="0 0 1440 490" version="1.1" xmlns="http://www.w3.org/2000/svg"><defs><linearGradient id="sw-gradient-0" x1="0" x2="0" y1="1" y2="0"><stop stop-color="rgba(243, 106, 62, 1)" offset="0%"/><stop stop-color="rgba(255, 179, 11, 1)" offset="100%"/></linearGradient></defs><path style="transform:translate(0, 0px); opacity:1" fill="url(#sw-gradient-0)" d="M0,147L26.7,122.5C53.3,98,107,49,160,89.8C213.3,131,267,261,320,294C373.3,327,427,261,480,269.5C533.3,278,587,359,640,375.7C693.3,392,747,343,800,285.8C853.3,229,907,163,960,130.7C1013.3,98,1067,98,1120,147C1173.3,196,1227,294,1280,302.2C1333.3,310,1387,229,1440,187.8C1493.3,147,1547,147,1600,179.7C1653.3,212,1707,278,1760,277.7C1813.3,278,1867,212,1920,171.5C1973.3,131,2027,114,2080,114.3C2133.3,114,2187,131,2240,179.7C2293.3,229,2347,310,2400,326.7C2453.3,343,2507,294,2560,236.8C2613.3,180,2667,114,2720,73.5C2773.3,33,2827,16,2880,16.3C2933.3,16,2987,33,3040,49C3093.3,65,3147,82,3200,114.3C3253.3,147,3307,196,3360,196C3413.3,196,3467,147,3520,171.5C3573.3,196,3627,294,3680,334.8C3733.3,376,3787,359,3813,351.2L3840,343L3840,490L3813.3,490C3786.7,490,3733,490,3680,490C3626.7,490,3573,490,3520,490C3466.7,490,3413,490,3360,490C3306.7,490,3253,490,3200,490C3146.7,490,3093,490,3040,490C2986.7,490,2933,490,2880,490C2826.7,490,2773,490,2720,490C2666.7,490,2613,490,2560,490C2506.7,490,2453,490,2400,490C2346.7,490,2293,490,2240,490C2186.7,490,2133,490,2080,490C2026.7,490,1973,490,1920,490C1866.7,490,1813,490,1760,490C1706.7,490,1653,490,1600,490C1546.7,490,1493,490,1440,490C1386.7,490,1333,490,1280,490C1226.7,490,1173,490,1120,490C1066.7,490,1013,490,960,490C906.7,490,853,490,800,490C746.7,490,693,490,640,490C586.7,490,533,490,480,490C426.7,490,373,490,320,490C266.7,490,213,490,160,490C106.7,490,53,490,27,490L0,490Z"/></svg>