<?xml version="1.0" standalone="no"?>
<svg xmlns:xlink="http://www.w3.org/1999/xlink" id="wave" style="transform:rotate(0deg); transition: 0.3s" viewBox="0 0 1440 490" version="1.1" xmlns="http://www.w3.org/2000/svg"><defs><linearGradient id="sw-gradient-0" x1="0" x2="0" y1="1" y2="0"><stop stop-color="rgba(243, 106, 62, 1)" offset="0%"/><stop stop-color="rgba(255, 179, 11, 1)" offset="100%"/></linearGradient></defs><path style="transform:translate(0, 0px); opacity:1" fill="url(#sw-gradient-0)" d="M0,392L240,334.8C480,278,960,163,1440,138.8C1920,114,2400,180,2880,171.5C3360,163,3840,82,4320,98C4800,114,5280,229,5760,228.7C6240,229,6720,114,7200,65.3C7680,16,8160,33,8640,40.8C9120,49,9600,49,10080,106.2C10560,163,11040,278,11520,294C12000,310,12480,229,12960,187.8C13440,147,13920,147,14400,122.5C14880,98,15360,49,15840,89.8C16320,131,16800,261,17280,294C17760,327,18240,261,18720,269.5C19200,278,19680,359,20160,367.5C20640,376,21120,310,21600,294C22080,278,22560,310,23040,343C23520,376,24000,408,24480,424.7C24960,441,25440,441,25920,392C26400,343,26880,245,27360,187.8C27840,131,28320,114,28800,106.2C29280,98,29760,98,30240,98C30720,98,31200,98,31680,130.7C32160,163,32640,229,33120,236.8C33600,245,34080,196,34320,171.5L34560,147L34560,490L34320,490C34080,490,33600,490,33120,490C32640,490,32160,490,31680,490C31200,490,30720,490,30240,490C29760,490,29280,490,28800,490C28320,490,27840,490,27360,490C26880,490,26400,490,25920,490C25440,490,24960,490,24480,490C24000,490,23520,490,23040,490C22560,490,22080,490,21600,490C21120,490,20640,490,20160,490C19680,490,19200,490,18720,490C18240,490,17760,490,17280,490C16800,490,16320,490,15840,490C15360,490,14880,490,14400,490C13920,490,13440,490,12960,490C12480,490,12000,490,11520,490C11040,490,10560,490,10080,490C9600,490,9120,490,8640,490C8160,490,7680,490,7200,490C6720,490,6240,490,5760,490C5280,490,4800,490,4320,490C3840,490,3360,490,2880,490C2400,490,1920,490,1440,490C960,490,480,490,240,490L0,490Z"/></svg>